<?xml version="1.0" encoding="utf-8"?>
<svg xmlns="http://www.w3.org/2000/svg" id="Layer_1" data-name="Layer 1" viewBox="0 0 24 24">
  <path d="M 15.669 9.988 L 12.351 9.988 L 12.351 6.588 C 12.351 5.558 11.539 4.725 10.533 4.725 C 9.525 4.725 8.711 5.558 8.711 6.588 L 8.711 9.988 L 5.392 9.988 C 4.387 9.988 3.572 10.822 3.572 11.848 C 3.572 12.879 4.387 13.715 5.392 13.715 L 8.711 13.715 L 8.711 17.113 C 8.711 18.141 9.525 18.975 10.533 18.975 C 11.539 18.975 12.351 18.141 12.351 17.113 L 12.351 13.715 L 15.669 13.715 C 16.678 13.715 17.49 12.879 17.49 11.848 C 17.49 10.822 16.678 9.988 15.669 9.988 Z" fill="#002F52" style=""/>
  <path d="M 10.496 0.071 C 3.794 0.118 0.066 4.391 0.066 11.938 C 0.066 19.357 3.799 23.72 10.509 23.763 C 17.303 23.718 20.813 19.738 20.938 11.9 C 20.823 4.321 17.119 0.119 10.496 0.071 Z M 10.509 21.609 C 4.791 21.572 2.075 18.492 1.964 11.917 C 2.071 5.436 4.867 2.263 10.496 2.225 C 16.068 2.266 18.944 5.533 19.041 11.897 C 18.935 18.484 16.22 21.571 10.509 21.609 Z" fill="#002F52" style=""/>
</svg>